<svg width="45" height="62" viewBox="0 0 45 62" fill="none" xmlns="http://www.w3.org/2000/svg">
<path d="M12.0518 1.11012C12.2606 1.03882 12.4865 1.0346 12.6978 1.09804L43.1447 10.239C43.5919 10.3733 43.8982 10.785 43.8982 11.252V25.9233C43.8982 26.2945 43.7037 26.6384 43.3856 26.8297L23.7522 38.6363C22.964 39.1103 23.1146 40.295 23.9962 40.5567L42.8893 46.1655C43.4473 46.3311 43.7666 46.9166 43.6037 47.4754L39.9631 59.9636C39.7972 60.5326 39.1963 60.8543 38.6309 60.6768L3.79174 49.7398C3.35084 49.6014 3.05084 49.1928 3.05084 48.7307V34.7244C3.05084 34.3537 3.24493 34.01 3.56239 33.8186L22.9011 22.1584C23.6822 21.6875 23.5408 20.5149 22.6702 20.243L8.4523 15.8035C8.24611 15.7391 8.06457 15.6132 7.9321 15.4425L0.90885 6.39643C0.463568 5.8229 0.715352 4.98152 1.40248 4.74687L12.0518 1.11012Z" stroke="white" stroke-width="1.3" stroke-miterlimit="10"/>
<path d="M7.72852 15.3661L11.4424 13.2518C11.9132 12.9838 12.1054 12.4034 11.8876 11.9074L10.3975 8.51429C10.1736 8.00451 10.3833 7.40845 10.877 7.15109L13.5846 5.73976C14.0834 5.47978 14.2914 4.87493 14.0582 4.36314L12.5251 1" stroke="white" stroke-width="1.3" stroke-miterlimit="10"/>
<path d="M14.085 5.07361L43.8985 13.9806" stroke="white" stroke-width="1.3" stroke-miterlimit="10"/>
<path d="M10.085 7.99695L43.8985 17.8166" stroke="white" stroke-width="1.3" stroke-miterlimit="10"/>
<path d="M11.9658 12.6787L43.898 22.0758" stroke="white" stroke-width="1.3" stroke-miterlimit="10"/>
<path d="M8.42383 15.6871L44 26.5547" stroke="white" stroke-width="1.3" stroke-miterlimit="10"/>
<path d="M33.1018 43.2532L2.89844 34.4814" stroke="white" stroke-width="1.3" stroke-miterlimit="10"/>
<path d="M7.72852 35.8844L30.0166 22.2788" stroke="white" stroke-width="1.3" stroke-miterlimit="10"/>
<path d="M11.9658 37.1173L34.6946 23.7146" stroke="white" stroke-width="1.3" stroke-miterlimit="10"/>
<path d="M16.542 38.4538L39.186 25.0848" stroke="white" stroke-width="1.3" stroke-miterlimit="10"/>
<path d="M3.05078 38.3517L32.8473 46.9545" stroke="white" stroke-width="1.3" stroke-miterlimit="10"/>
<path d="M3.05078 42.3582L31.7456 50.9102" stroke="white" stroke-width="1.3" stroke-miterlimit="10"/>
<path d="M3.05078 45.9237L30.8982 54.3575" stroke="white" stroke-width="1.3" stroke-miterlimit="10"/>
<path d="M34.0851 43.5575L31.78 51.1631L29.7461 57.8391" stroke="white" stroke-width="1.3" stroke-miterlimit="10"/>
<path d="M2.57133 8.50372C2.8423 8.91482 3.36551 9.06844 3.71302 8.71964C4.28731 8.14322 5.01068 6.94842 4.96507 4.60332C4.95172 3.91682 4.24518 3.49379 3.60389 3.7392L1.50117 4.54387C0.869772 4.7855 0.624026 5.54932 0.996076 6.11378L2.57133 8.50372Z" fill="white"/>
</svg>
