<svg width="48" height="48" viewBox="0 0 48 48" fill="none" xmlns="http://www.w3.org/2000/svg">
<path d="M24 47.9998C37.2548 47.9998 48 37.2547 48 23.9999C48 10.7451 37.2548 0 24 0C10.7452 0 0 10.7451 0 23.9999C0 37.2547 10.7452 47.9998 24 47.9998Z" fill="#B0E1FF"/>
<path d="M11.534 15.4288C8.40527 21.1425 9.59571 28.1447 14.1916 32.5231L14.2968 39.9328L22.3037 47.9396C22.8643 47.9787 23.4298 48 24.0004 48C36.5488 48 46.8463 38.3691 47.9083 26.096L34.0198 12.2075C33.0884 11.2771 32.0117 10.4612 30.799 9.7971C23.9203 6.0305 15.2984 8.55444 11.534 15.4288Z" fill="#85C5ED"/>
<path d="M36.4306 29.062C33.2825 34.811 26.7194 37.5341 20.5965 36.0304L14.2968 39.9329L14.1916 32.5233C9.59571 28.1449 8.40527 21.1427 11.534 15.429C15.2984 8.55476 23.9204 6.03073 30.7989 9.79733C37.672 13.5606 40.1982 22.1818 36.4306 29.062Z" fill="#41A0D7"/>
<path d="M14.3042 26.8011L22.5105 17.9705L26.4799 21.9844L33.8387 17.9705L25.7662 26.8011L22.0646 23.0547L14.3042 26.8011Z" fill="white"/>
</svg>
