<svg width="48" height="48" viewBox="0 0 48 48" fill="none" xmlns="http://www.w3.org/2000/svg">
<path d="M23.9998 48C37.2545 48 47.9995 37.2548 47.9995 24C47.9995 10.7452 37.2545 0 23.9998 0C10.7451 0 0 10.7452 0 24C0 37.2548 10.7451 48 23.9998 48Z" fill="#41B4E6"/>
<path d="M47.9999 24.0004C47.9999 23.4155 47.9778 22.8361 47.9368 22.2617L37.99 12.3149L10.0096 23.3212L20.7151 34.0268L20.8555 34.5324L21.0373 34.3491L21.038 34.3498L20.8555 34.5324L32.6978 46.3747C41.6528 42.8909 47.9999 34.1874 47.9999 24.0004Z" fill="#0091C8"/>
<path d="M21.6691 27.497L32.5151 35.6859L37.9901 12.3149L10.0096 23.3212L18.5238 26.1414L34.0622 15.7185L21.6691 27.497Z" fill="white"/>
<path d="M18.5239 26.1414L20.8558 34.5325L21.6692 27.497L34.0624 15.7185L18.5239 26.1414Z" fill="#D2D2D7"/>
<path d="M25.1943 30.1582L20.8558 34.5323L21.6693 27.4968L25.1943 30.1582Z" fill="#B9B9BE"/>
</svg>
