<svg width="48" height="48" viewBox="0 0 48 48" fill="none" xmlns="http://www.w3.org/2000/svg">
<path d="M48 24C48 37.255 37.255 48 24 48C10.745 48 0 37.255 0 24C0 10.745 10.745 0 24 0C37.255 0 48 10.745 48 24Z" fill="#9330B2"/>
<path d="M47.9973 24.2051L35.7864 11.9941C33.6543 9.67493 30.5972 8.21851 27.2057 8.21851H20.7941C14.3663 8.21851 9.13721 13.448 9.13721 19.8757V24.3311C9.13721 27.4028 10.3823 30.3625 12.5316 32.5345V38.421C12.5316 38.8868 12.7316 39.3241 13.0707 39.6284L21.343 47.8528C22.2157 47.9491 23.1019 48 23.9999 48C37.186 48 47.8871 37.3652 47.9973 24.2051Z" fill="#681F7B"/>
<path d="M27.2057 8.21851H20.7941C14.3663 8.21851 9.13721 13.4476 9.13721 19.8754V24.3311C9.13721 27.4025 10.3823 30.3622 12.5316 32.5342V38.4207C12.5316 39 12.8407 39.535 13.342 39.8251C13.5933 39.9701 13.8734 40.0426 14.1536 40.0426C14.4333 40.0426 14.7131 39.9705 14.9636 39.8258L21.621 35.9879H27.2057C33.6334 35.9879 38.8625 30.7588 38.8625 24.3311V19.8754C38.8625 13.4476 33.6334 8.21851 27.2057 8.21851ZM36.3804 24.5134C36.3804 29.4038 32.3792 33.4054 27.4884 33.4054H22.2644L14.0726 38.4207V30.627C12.5554 29.0299 11.6194 26.8766 11.6194 24.5138V19.6926C11.6194 14.8022 15.6206 10.801 20.511 10.801H27.4884C32.3788 10.801 36.3804 14.8022 36.3804 19.6926V24.5134Z" fill="white"/>
<path d="M27.2062 8.21851H24V10.801H27.4889C32.3789 10.801 36.3801 14.8022 36.3801 19.6923V24.5138C36.3801 29.4042 32.3789 33.4054 27.4889 33.4054H24V35.9879H27.2062C33.6335 35.9879 38.863 30.7584 38.863 24.3311V19.8754C38.863 13.4473 33.6335 8.21851 27.2062 8.21851Z" fill="#FFF5CB"/>
<path d="M22.3042 15.4048C22.2723 15.3733 22.2452 15.3359 22.224 15.2934C22.1193 15.0829 22.205 14.8273 22.4155 14.7222C24.6717 13.5983 27.6582 14.2237 29.6775 16.243C31.696 18.2616 32.3219 21.2466 31.1991 23.5021C31.0944 23.7126 30.8387 23.7983 30.6278 23.6936C30.4172 23.5889 30.3315 23.3332 30.4363 23.1227C31.3983 21.1902 30.8384 18.6088 29.0751 16.8451C27.311 15.081 24.7285 14.5218 22.7953 15.485C22.6272 15.5685 22.4302 15.5308 22.3042 15.4048Z" fill="white"/>
<path d="M31.199 23.5025C31.0946 23.7123 30.8383 23.7984 30.6281 23.694C30.4175 23.5885 30.3314 23.3333 30.4365 23.1223C31.3982 21.1899 30.8379 18.6092 29.075 16.8451C27.6581 15.4283 25.7128 14.7888 24 15.0917V14.2296C25.9438 13.9425 28.1038 14.6698 29.6774 16.2427C31.6959 18.262 32.3218 21.247 31.199 23.5025Z" fill="#FFF5CB"/>
<path d="M23.2714 17.2801C23.2373 17.2457 23.2084 17.2054 23.1868 17.1592C23.0868 16.9461 23.1787 16.6927 23.3919 16.5931C24.9428 15.8676 26.9002 16.2953 28.2625 17.6576C29.6244 19.0199 30.0529 20.9759 29.3285 22.5257C29.2285 22.7388 28.9751 22.8307 28.762 22.7311C28.5492 22.6315 28.4573 22.3777 28.5565 22.165C29.13 20.9389 28.7697 19.3697 27.66 18.2601C26.5504 17.1504 24.9805 16.7905 23.7529 17.3647C23.5859 17.4427 23.3944 17.4031 23.2714 17.2801Z" fill="white"/>
<path d="M29.3284 22.5254C29.2288 22.7382 28.9753 22.8301 28.7626 22.7305C28.5498 22.6309 28.4568 22.3774 28.5564 22.1647C29.1302 20.9382 28.7703 19.3694 27.661 18.2601C26.6239 17.2234 25.1858 16.8403 24 17.2629V16.3723C25.4297 15.9911 27.074 16.4679 28.2627 17.6577C29.6254 19.0193 30.0527 20.976 29.3284 22.5254Z" fill="#FFF5CB"/>
<path d="M24.2284 19.1523C24.187 19.1113 24.1537 19.0607 24.1317 19.0025C24.0482 18.7828 24.1588 18.5367 24.3786 18.4532C25.1967 18.1426 26.1675 18.384 26.8519 19.0684C27.5364 19.7529 27.7785 20.7233 27.4683 21.5403C27.3852 21.7604 27.1391 21.871 26.9193 21.7875C26.6992 21.704 26.5886 21.4583 26.6721 21.2382C26.8604 20.7416 26.6904 20.1117 26.2495 19.6708C25.809 19.2299 25.1784 19.0607 24.681 19.2497C24.5192 19.3108 24.3434 19.2673 24.2284 19.1523Z" fill="white"/>
<path d="M24.2284 19.1523C24.187 19.1113 24.1537 19.0607 24.1317 19.0025C24.0482 18.7828 24.1588 18.5367 24.3786 18.4532C25.1967 18.1426 26.1675 18.384 26.8519 19.0684C27.5364 19.7529 27.7785 20.7233 27.4683 21.5403C27.3852 21.7604 27.1391 21.871 26.9193 21.7875C26.6992 21.704 26.5886 21.4583 26.6721 21.2382C26.8604 20.7416 26.6904 20.1117 26.2495 19.6708C25.809 19.2299 25.1784 19.0607 24.681 19.2497C24.5192 19.3108 24.3434 19.2673 24.2284 19.1523Z" fill="#FFF5CB"/>
<path d="M21.1539 18.4051L18.1971 15.4483C17.8214 15.0729 17.2907 14.9847 17.0175 15.2575L16.7319 15.5435C15.3388 16.9362 15.081 18.9668 16.2126 20.3467C17.617 22.0584 19.1796 23.7928 20.6818 25.2375C22.1265 26.7397 23.8609 28.3023 25.5726 29.7067C26.9525 30.8383 28.9831 30.5805 30.3758 29.1878L30.6618 28.9018C30.9346 28.6289 30.8464 28.0979 30.4706 27.7226L27.5139 24.7658C26.8122 24.0638 26.3493 24.1608 26.0761 24.4336C26.0761 24.4336 25.7033 24.8127 25.6352 24.891V24.8899C25.3693 25.1562 24.6959 25.2155 24.0876 24.8346C23.5339 24.4875 22.9608 23.9836 22.4459 23.4734C21.9357 22.9585 21.4318 22.3854 21.0847 21.8317C20.7038 21.2234 20.7631 20.55 21.0294 20.2841H21.0283C21.1066 20.216 21.4857 19.8432 21.4857 19.8432C21.7589 19.57 21.8555 19.1071 21.1539 18.4051Z" fill="white"/>
<path d="M30.6621 28.9013L30.3757 29.1877C28.983 30.5804 26.952 30.8379 25.5725 29.7063C25.0474 29.276 24.5204 28.8299 24 28.3755V24.7782C24.0289 24.7976 24.059 24.8159 24.0879 24.8346C24.6954 25.2154 25.3696 25.1554 25.6355 24.8895V24.8917C25.7032 24.8122 26.0764 24.4339 26.0764 24.4339C26.3492 24.1604 26.8125 24.0637 27.5138 24.7657L30.4706 27.7225C30.8459 28.0979 30.9349 28.6289 30.6621 28.9013Z" fill="#FFF5CB"/>
</svg>
