<svg width="48" height="48" viewBox="0 0 48 48" fill="none" xmlns="http://www.w3.org/2000/svg">
<path d="M24 47.9999C37.2548 47.9999 48 37.2547 48 23.9999C48 10.7451 37.2548 0 24 0C10.7452 0 0 10.7451 0 23.9999C0 37.2547 10.7452 47.9999 24 47.9999Z" fill="#75B73B"/>
<path d="M33.7726 14.2339C32.381 13.8859 30.3347 12.684 29.0101 12.2022C23.8384 10.586 16.8889 11.879 14.9494 17.8588C14.7878 18.0204 14.4646 18.0204 14.3029 18.0204C10.4241 22.5456 13.01 28.0406 12.6868 33.0506C12.5764 34.8168 11.6478 36.3785 10.4526 37.6995L20.5103 47.7467C21.6498 47.9126 22.8145 48.0001 24 48.0001C35.8534 48.0001 45.6986 39.4065 47.6481 28.11L33.7726 14.2339Z" fill="#52891D"/>
<path d="M23.3285 10.1669C16.0133 10.5149 10.2406 16.6071 10.2626 23.9304C10.2694 26.1609 10.8079 28.2662 11.7579 30.1268L10.2995 37.2062C10.2206 37.5893 10.566 37.9246 10.9464 37.8344L17.8835 36.191C19.6658 37.0789 21.6676 37.5915 23.7862 37.6239C31.263 37.7381 37.4972 31.8015 37.7305 24.3274C37.9801 16.3158 31.3679 9.78394 23.3285 10.1669ZM31.6059 31.4939C29.5745 33.5254 26.8732 34.6443 24 34.6443C22.3178 34.6443 20.7069 34.2668 19.2126 33.5225L18.2468 33.0412L13.9933 34.0487L14.8885 29.7028L14.4128 28.7707C13.6369 27.2514 13.2435 25.6087 13.2435 23.8878C13.2435 21.0146 14.3624 18.3136 16.3939 16.2819C18.4073 14.2684 21.1525 13.1316 24.0002 13.1316C26.8731 13.1316 29.5744 14.2505 31.6059 16.2819C33.6373 18.3134 34.7562 21.0147 34.7562 23.8876C34.7564 26.7353 33.6194 29.4805 31.6059 31.4939Z" fill="white"/>
<path d="M30.6668 26.8669L28.0058 26.103C27.6562 26.0028 27.2794 26.102 27.0244 26.3617L26.3736 27.0245C26.0993 27.3043 25.6831 27.394 25.3199 27.2471C24.0611 26.7377 21.4131 24.3832 20.7373 23.2059C20.5419 22.8662 20.5743 22.4417 20.8139 22.1314L21.3818 21.3965C21.6044 21.1087 21.6513 20.7217 21.5042 20.3889L20.3847 17.8569C20.1166 17.2506 19.3416 17.0739 18.8353 17.5022C18.0927 18.1304 17.2115 19.0847 17.1046 20.1422C16.9157 22.0066 17.7154 24.3566 20.7385 27.1786C24.2314 30.439 27.0286 30.8694 28.85 30.4283C29.8831 30.1783 30.7086 29.1753 31.2293 28.354C31.5847 27.7937 31.3039 27.05 30.6668 26.8669Z" fill="white"/>
<path d="M33.3756 13.8479L31.2922 15.9833C31.3982 16.0813 31.5037 16.1798 31.6063 16.2825C33.6379 18.314 34.7567 21.0153 34.7567 23.8881C34.7567 26.7358 33.6197 29.4809 31.6063 31.4944C29.5748 33.5259 26.8735 34.6448 24.0004 34.6448C22.3181 34.6448 20.7074 34.2673 19.2129 33.523L18.2471 33.0417L13.9937 34.0492L14.0816 33.6223L10.3153 37.4822C10.3984 37.7319 10.6627 37.9017 10.9466 37.8345L17.8837 36.1911C19.6659 37.079 21.6678 37.5916 23.7863 37.624C31.2632 37.7382 37.4976 31.8016 37.7307 24.3275C37.8596 20.19 36.1582 16.4473 33.3756 13.8479Z" fill="#D1D1D1"/>
<path d="M30.667 26.8669L28.006 26.103C27.6564 26.0028 27.2796 26.102 27.0247 26.3617L26.3739 27.0245C26.0995 27.3043 25.6833 27.394 25.3201 27.2471C24.593 26.9528 23.4028 26.0429 22.3965 25.0999L20.5466 26.9959C20.6101 27.0567 20.6734 27.1173 20.7388 27.1786C24.2317 30.439 27.0289 30.8694 28.8503 30.4283C29.8834 30.1783 30.7089 29.1753 31.2296 28.354C31.5849 27.7937 31.3041 27.05 30.667 26.8669Z" fill="#D1D1D1"/>
</svg>
